name Walk5.mot
datacolumns 19
datarows 22
range 2.48000000 2.50100000
endheader

                time	   L_ground_force_vx	   L_ground_force_vy	   L_ground_force_vz	   L_ground_force_px	   L_ground_force_py	   L_ground_force_pz	   R_ground_force_vx	   R_ground_force_vy	   R_ground_force_vz	   R_ground_force_px	   R_ground_force_py	   R_ground_force_pz	   L_ground_torque_x	   L_ground_torque_y	   L_ground_torque_z	   R_ground_torque_x	   R_ground_torque_y	   R_ground_torque_z	
          2.48000000	          0.00000000	          0.00000000	          0.00000000	          0.00000000	          0.00000000	          0.00000000	          0.00000000	          0.00000000	          0.00000000	          0.00000000	          0.00000000	          0.00000000	          0.00000000	          0.00000000	          0.00000000	          0.00000000	          0.00000000	          0.00000000	
          2.48100000	          0.00000000	          0.00000000	          0.00000000	          0.00000000	          0.00000000	          0.00000000	          0.00000000	          0.00000000	          0.00000000	          0.00000000	          0.00000000	          0.00000000	          0.00000000	          0.00000000	          0.00000000	          0.00000000	          0.00000000	          0.00000000	
          2.48200000	          0.00000000	          0.00000000	          0.00000000	          0.00000000	          0.00000000	          0.00000000	          0.00000000	          0.00000000	          0.00000000	          0.00000000	          0.00000000	          0.00000000	          0.00000000	          0.00000000	          0.00000000	          0.00000000	          0.00000000	          0.00000000	
          2.48300000	          0.00000000	          0.00000000	          0.00000000	          0.00000000	          0.00000000	          0.00000000	          0.00000000	          0.00000000	          0.00000000	          0.00000000	          0.00000000	          0.00000000	          0.00000000	          0.00000000	          0.00000000	          0.00000000	          0.00000000	          0.00000000	
          2.48400000	          0.00000000	          0.00000000	          0.00000000	          0.00000000	          0.00000000	          0.00000000	          0.00000000	          0.00000000	          0.00000000	          0.00000000	          0.00000000	          0.00000000	          0.00000000	          0.00000000	          0.00000000	          0.00000000	          0.00000000	          0.00000000	
          2.48500000	          0.00000000	          0.00000000	          0.00000000	          0.00000000	          0.00000000	          0.00000000	          0.00000000	          0.00000000	          0.00000000	          0.00000000	          0.00000000	          0.00000000	          0.00000000	          0.00000000	          0.00000000	          0.00000000	          0.00000000	          0.00000000	
          2.48600000	          0.00000000	          0.00000000	          0.00000000	          0.00000000	          0.00000000	          0.00000000	          0.00000000	          0.00000000	          0.00000000	          0.00000000	          0.00000000	          0.00000000	          0.00000000	          0.00000000	          0.00000000	          0.00000000	          0.00000000	          0.00000000	
          2.48700000	          0.00000000	          0.00000000	          0.00000000	          0.00000000	          0.00000000	          0.00000000	          0.00000000	          0.00000000	          0.00000000	          0.00000000	          0.00000000	          0.00000000	          0.00000000	          0.00000000	          0.00000000	          0.00000000	          0.00000000	          0.00000000	
          2.48800000	         -2.56051606	         15.84234421	         -5.04817138	         -0.46205002	          0.00000000	         -0.08539198	          0.00000000	          0.00000000	          0.00000000	          0.00000000	          0.00000000	          0.00000000	          0.00000000	         -0.08801639	          0.00000000	          0.00000000	          0.00000000	          0.00000000	
          2.48900000	         -3.51414898	         24.68235942	         -7.27678900	         -0.45964161	          0.00000000	         -0.08651325	          0.00000000	          0.00000000	          0.00000000	          0.00000000	          0.00000000	          0.00000000	          0.00000000	         -0.09182427	          0.00000000	          0.00000000	          0.00000000	          0.00000000	
          2.49000000	         -4.30710758	         35.07544384	         -9.41469107	         -0.45758109	          0.00000000	         -0.08794501	          0.00000000	          0.00000000	          0.00000000	          0.00000000	          0.00000000	          0.00000000	          0.00000000	         -0.06419266	          0.00000000	          0.00000000	          0.00000000	          0.00000000	
          2.49100000	         -4.90038653	         47.61742192	        -11.36479924	         -0.45601042	          0.00000000	         -0.08950613	          0.00000000	          0.00000000	          0.00000000	          0.00000000	          0.00000000	          0.00000000	          0.00000000	         -0.00977353	          0.00000000	          0.00000000	          0.00000000	          0.00000000	
          2.49200000	         -5.30313516	         63.30903985	        -13.12265151	         -0.45489247	          0.00000000	         -0.09059166	          0.00000000	          0.00000000	          0.00000000	          0.00000000	          0.00000000	          0.00000000	          0.00000000	          0.05287143	          0.00000000	          0.00000000	          0.00000000	          0.00000000	
          2.49300000	         -5.51889979	         83.20262915	        -14.69166091	         -0.45400574	          0.00000000	         -0.09077652	          0.00000000	          0.00000000	          0.00000000	          0.00000000	          0.00000000	          0.00000000	          0.00000000	          0.10088012	          0.00000000	          0.00000000	          0.00000000	          0.00000000	
          2.49400000	         -5.54591030	        108.11445441	        -16.03203532	         -0.45314680	          0.00000000	         -0.09020602	          0.00000000	          0.00000000	          0.00000000	          0.00000000	          0.00000000	          0.00000000	          0.00000000	          0.11732341	          0.00000000	          0.00000000	          0.00000000	          0.00000000	
          2.49500000	         -5.41398640	        138.29306264	        -17.05802535	         -0.45222946	          0.00000000	         -0.08935027	          0.00000000	          0.00000000	          0.00000000	          0.00000000	          0.00000000	          0.00000000	          0.00000000	          0.10271648	          0.00000000	          0.00000000	          0.00000000	          0.00000000	
          2.49600000	         -5.23109342	        173.07271274	        -17.67416553	         -0.45127092	          0.00000000	         -0.08858418	          0.00000000	          0.00000000	          0.00000000	          0.00000000	          0.00000000	          0.00000000	          0.00000000	          0.07846122	          0.00000000	          0.00000000	          0.00000000	          0.00000000	
          2.49700000	         -5.20162193	        210.77748239	        -17.81534195	         -0.45033491	          0.00000000	         -0.08804757	          0.00000000	          0.00000000	          0.00000000	          0.00000000	          0.00000000	          0.00000000	          0.00000000	          0.07499092	          0.00000000	          0.00000000	          0.00000000	          0.00000000	
          2.49800000	         -5.59573803	        249.06379578	        -17.47393914	         -0.44947979	          0.00000000	         -0.08774161	          0.00000000	          0.00000000	          0.00000000	          0.00000000	          0.00000000	          0.00000000	          0.00000000	          0.11543534	          0.00000000	          0.00000000	          0.00000000	          0.00000000	
          2.49900000	         -6.69267561	        285.52751838	        -16.72225894	         -0.44873377	          0.00000000	         -0.08761182	          0.00000000	          0.00000000	          0.00000000	          0.00000000	          0.00000000	          0.00000000	          0.00000000	          0.20744708	          0.00000000	          0.00000000	          0.00000000	          0.00000000	
          2.50000000	         -8.71244605	        318.25565877	        -15.72150431	         -0.44809644	          0.00000000	         -0.08758075	          0.00000000	          0.00000000	          0.00000000	          0.00000000	          0.00000000	          0.00000000	          0.00000000	          0.34349506	          0.00000000	          0.00000000	          0.00000000	          0.00000000	
          2.50100000	        -11.74895634	        346.14900363	        -14.68449795	         -0.44754594	          0.00000000	         -0.08758650	          0.00000000	          0.00000000	          0.00000000	          0.00000000	          0.00000000	          0.00000000	          0.00000000	          0.50416371	          0.00000000	          0.00000000	          0.00000000	          0.00000000	
